<svg xmlns="http://www.w3.org/2000/svg" width="19.952" height="14.963" viewBox="0 0 19.952 14.963">
  <path id="Path_834" data-name="Path 834" d="M7683.27,12.736l-2.241,1.582a1,1,0,0,1-1.153-1.635l1.9-1.34A18.247,18.247,0,0,1,7679,7.479S7682.74,0,7689.051,0a8.988,8.988,0,0,1,5.655,2.214l2.17-1.532a1,1,0,1,1,1.151,1.635l-1.834,1.3a18.563,18.563,0,0,1,2.758,3.868s-3.741,7.483-9.9,7.483A9.226,9.226,0,0,1,7683.27,12.736Zm5.706-.267a4.99,4.99,0,0,0,4.571-6.988l-2.075,1.465a2.5,2.5,0,0,1-2.44,3.054,2.488,2.488,0,0,1-1.337-.388l-2.133,1.506A4.975,4.975,0,0,0,7688.976,12.468Zm-4.987-4.989a4.979,4.979,0,0,0,.418,2l2.167-1.529a2.5,2.5,0,0,1,3.711-2.62l2.109-1.488a4.988,4.988,0,0,0-8.4,3.633Z" transform="translate(-7679)" fill="#5bdc94"/>
</svg>
