<svg xmlns="http://www.w3.org/2000/svg" width="18.042" height="18.042" viewBox="0 0 18.042 18.042">
  <path id="Icon_awesome-phone" data-name="Icon awesome-phone" d="M17.386.866,13.721.021a.851.851,0,0,0-.969.49L11.061,4.457a.844.844,0,0,0,.243.987l2.135,1.748A13.059,13.059,0,0,1,7.2,13.436L5.447,11.3a.845.845,0,0,0-.987-.243L.514,12.749a.856.856,0,0,0-.493.973l.846,3.665a.845.845,0,0,0,.825.655,16.348,16.348,0,0,0,16.35-16.35A.845.845,0,0,0,17.386.866Z" transform="translate(0.001 0.001)" fill="#74757e"/>
</svg>
