<svg xmlns="http://www.w3.org/2000/svg" width="40" height="40" viewBox="0 0 40 40">
  <g id="Group_1750" data-name="Group 1750" transform="translate(-74 -4923)">
    <path id="Ellipse_4" data-name="Ellipse 4" d="M20,1a19.005,19.005,0,0,0-7.4,36.507A19.005,19.005,0,0,0,27.4,2.493,18.88,18.88,0,0,0,20,1m0-1A20,20,0,1,1,0,20,20,20,0,0,1,20,0Z" transform="translate(74 4923)" fill="#a3a5ac"/>
    <path id="Icon_awesome-instagram" data-name="Icon awesome-instagram" d="M11.282,7.735a5.785,5.785,0,1,0,5.785,5.785A5.776,5.776,0,0,0,11.282,7.735Zm0,9.547a3.761,3.761,0,1,1,3.761-3.761,3.768,3.768,0,0,1-3.761,3.761ZM18.654,7.5A1.349,1.349,0,1,1,17.3,6.149,1.346,1.346,0,0,1,18.654,7.5Zm3.832,1.37A6.678,6.678,0,0,0,20.663,4.14a6.722,6.722,0,0,0-4.728-1.823c-1.863-.106-7.447-.106-9.31,0A6.712,6.712,0,0,0,1.9,4.135,6.7,6.7,0,0,0,.074,8.863c-.106,1.863-.106,7.447,0,9.31A6.678,6.678,0,0,0,1.9,22.9a6.73,6.73,0,0,0,4.728,1.823c1.863.106,7.447.106,9.31,0A6.678,6.678,0,0,0,20.663,22.9a6.722,6.722,0,0,0,1.823-4.728c.106-1.863.106-7.442,0-9.3Zm-2.407,11.3a3.808,3.808,0,0,1-2.145,2.145c-1.485.589-5.01.453-6.651.453s-5.171.131-6.651-.453a3.808,3.808,0,0,1-2.145-2.145c-.589-1.485-.453-5.01-.453-6.651S1.9,8.349,2.486,6.869A3.808,3.808,0,0,1,4.631,4.724c1.485-.589,5.01-.453,6.651-.453s5.171-.131,6.651.453a3.808,3.808,0,0,1,2.145,2.145c.589,1.485.453,5.01.453,6.651S20.668,18.691,20.079,20.172Z" transform="translate(82.56 4930.175)" fill="#fff"/>
  </g>
</svg>
