<svg xmlns="http://www.w3.org/2000/svg" width="40" height="40" viewBox="0 0 40 40">
  <g id="Group_1749" data-name="Group 1749" transform="translate(-23 -4923)">
    <path id="Ellipse_3" data-name="Ellipse 3" d="M20,1a19.005,19.005,0,0,0-7.4,36.507A19.005,19.005,0,0,0,27.4,2.493,18.88,18.88,0,0,0,20,1m0-1A20,20,0,1,1,0,20,20,20,0,0,1,20,0Z" transform="translate(23 4923)" fill="#a3a5ac"/>
    <path id="Icon_awesome-linkedin-in" data-name="Icon awesome-linkedin-in" d="M4.482,20.024H.331V6.655H4.482ZM2.4,4.832A2.416,2.416,0,1,1,4.808,2.4,2.424,2.424,0,0,1,2.4,4.832ZM20.019,20.024H15.877V13.516c0-1.551-.031-3.54-2.158-3.54-2.158,0-2.489,1.685-2.489,3.428v6.619H7.082V6.655h3.981V8.479h.058A4.362,4.362,0,0,1,15.05,6.32c4.2,0,4.974,2.767,4.974,6.36v7.343Z" transform="translate(32.782 4932.782)" fill="#fff"/>
  </g>
</svg>
