<svg id="Icon_feather-search" data-name="Icon feather-search" xmlns="http://www.w3.org/2000/svg" width="24.708" height="24.708" viewBox="0 0 24.708 24.708">
  <path id="Path_2" data-name="Path 2" d="M14.593,3.5A11.093,11.093,0,1,1,6.749,6.749,11.02,11.02,0,0,1,14.593,3.5Zm0,20.185A9.093,9.093,0,1,0,5.5,14.593,9.1,9.1,0,0,0,14.593,23.685Z" transform="translate(-3.5 -3.5)" fill="#3c3f45"/>
  <path id="Path_3" data-name="Path 3" d="M30.463,31.463a1,1,0,0,1-.707-.293l-5.488-5.488a1,1,0,0,1,1.414-1.414l5.488,5.488a1,1,0,0,1-.707,1.707Z" transform="translate(-6.755 -6.755)" fill="#3c3f45"/>
</svg>
