<svg xmlns="http://www.w3.org/2000/svg" width="21.152" height="21.152" viewBox="0 0 21.152 21.152">
  <g id="_4213462_communication_global_internet_network_web_icon" data-name="4213462_communication_global_internet_network_web_icon" transform="translate(-2 -2)">
    <path id="Path_460" data-name="Path 460" d="M12.576,23.152A10.576,10.576,0,1,0,2,12.576,10.585,10.585,0,0,0,12.576,23.152ZM4.388,16.789l4.3-.034a15.31,15.31,0,0,0,2.371,4.9A9.224,9.224,0,0,1,4.388,16.789Zm5.39-7.113h5.356a14.471,14.471,0,0,1,.034,5.68l-5.39.034A14.019,14.019,0,0,1,9.778,9.676Zm2.678,11.582a13.692,13.692,0,0,1-2.337-4.5l4.691-.034A14.412,14.412,0,0,1,12.456,21.258Zm1.365.444a15.041,15.041,0,0,0,2.405-5l4.589-.034A9.234,9.234,0,0,1,13.821,21.7Zm7.966-9.126a9.513,9.513,0,0,1-.409,2.729l-4.827.034a15.418,15.418,0,0,0-.034-5.663h4.793A9.067,9.067,0,0,1,21.787,12.576ZM20.729,8.311H16.192A15.685,15.685,0,0,0,13.821,3.45,9.172,9.172,0,0,1,20.729,8.311Zm-5.953,0h-4.64a14.093,14.093,0,0,1,2.32-4.418A14.093,14.093,0,0,1,14.776,8.311ZM11.058,3.5a15.157,15.157,0,0,0-2.337,4.81h-4.3A9.179,9.179,0,0,1,11.058,3.5ZM8.4,9.676A15.7,15.7,0,0,0,8.38,15.39l-4.554.034a8.822,8.822,0,0,1-.461-2.849,9.067,9.067,0,0,1,.478-2.9Z" fill="#74757e"/>
  </g>
</svg>
