<svg xmlns="http://www.w3.org/2000/svg" width="40" height="40" viewBox="0 0 40 40">
  <g id="Group_1751" data-name="Group 1751" transform="translate(-125 -4923)">
    <path id="Ellipse_5" data-name="Ellipse 5" d="M20,1a19.005,19.005,0,0,0-7.4,36.507A19.005,19.005,0,0,0,27.4,2.493,18.88,18.88,0,0,0,20,1m0-1A20,20,0,1,1,0,20,20,20,0,0,1,20,0Z" transform="translate(125 4923)" fill="#a3a5ac"/>
    <path id="Icon_awesome-facebook-f" data-name="Icon awesome-facebook-f" d="M13.749,13.643l.674-4.39H10.21V6.405a2.195,2.195,0,0,1,2.475-2.371H14.6V.3A23.351,23.351,0,0,0,11.2,0C7.732,0,5.465,2.1,5.465,5.908V9.254H1.609v4.39H5.465V24.255H10.21V13.643Z" transform="translate(136.278 4930.682)" fill="#fff"/>
  </g>
</svg>
