<svg xmlns="http://www.w3.org/2000/svg" width="19.44" height="21.465" viewBox="0 0 19.44 21.465">
  <path id="Icon_ionic-md-share" data-name="Icon ionic-md-share" d="M20.691,18.3a2.951,2.951,0,0,0-2.112.809l-7.743-4.476a3.627,3.627,0,0,0,.108-.755,3.625,3.625,0,0,0-.108-.755L18.471,8.7A3.24,3.24,0,1,0,17.442,6.33a3.605,3.605,0,0,0,.108.755L9.915,11.507a3.259,3.259,0,0,0-2.22-.863A3.206,3.206,0,0,0,4.5,13.88a3.26,3.26,0,0,0,5.469,2.373l7.689,4.476a2.705,2.705,0,0,0-.108.7A3.141,3.141,0,1,0,20.691,18.3Z" transform="translate(-4.5 -3.094)" fill="#8c8d95"/>
</svg>
