<svg xmlns="http://www.w3.org/2000/svg" width="40.012" height="40.012" viewBox="0 0 40.012 40.012">
  <path id="Union_10" data-name="Union 10" d="M17004,20.006A20.006,20.006,0,1,1,17024,40.012,20.006,20.006,0,0,1,17004,20.006Zm12.611-17.512A19.065,19.065,0,1,0,17024,1,19.019,19.019,0,0,0,17016.609,2.494Zm-1.369,26.589a4.24,4.24,0,0,1,0-5.988l4.791-4.791a4.239,4.239,0,0,1,5.988,0,.847.847,0,0,1-1.2,1.2,2.541,2.541,0,0,0-3.594,0l-4.791,4.791a2.539,2.539,0,1,0,3.594,3.589l2.391-2.391a.848.848,0,0,1,1.2,1.2l-2.395,2.4a4.244,4.244,0,0,1-5.988,0Zm6.588-6.587a.847.847,0,1,1,1.2-1.2,2.534,2.534,0,0,0,3.588,0l5.27-5.27a2.539,2.539,0,1,0-3.592-3.589l-2.875,2.87a.845.845,0,0,1-1.193-1.2l2.871-2.87a4.233,4.233,0,0,1,5.988,5.984l-5.27,5.27a4.229,4.229,0,0,1-5.984,0Z" transform="translate(-17003.998)" fill="#a3a5ad"/>
</svg>
