<svg xmlns="http://www.w3.org/2000/svg" width="15.286" height="15.286" viewBox="0 0 15.286 15.286">
  <g id="lock" transform="translate(-2 -2)">
    <path id="Path_2015" data-name="Path 2015" d="M11.617,16.581a1.246,1.246,0,1,0-1.246-1.246A1.246,1.246,0,0,0,11.617,16.581Z" transform="translate(-1.973 -2.849)" fill="#a3a5ad"/>
    <path id="Path_2016" data-name="Path 2016" d="M14.443,7.755V6.8c0-2.064-.5-4.8-4.8-4.8s-4.8,2.736-4.8,4.8v.955C2.7,8.023,2,9.108,2,11.775V13.2c0,3.134.955,4.089,4.089,4.089H13.2c3.134,0,4.089-.955,4.089-4.089V11.775C17.286,9.108,16.583,8.023,14.443,7.755Zm-4.8,7.039a2.308,2.308,0,1,1,2.308-2.308A2.311,2.311,0,0,1,9.643,14.794ZM6.089,7.686H5.913V6.8c0-2.239.634-3.73,3.73-3.73s3.73,1.49,3.73,3.73v.894H6.089Z" fill="#a3a5ad"/>
  </g>
</svg>
